<mxfile host="65bd71144e" modified="2020-11-01T21:10:59.649Z" agent="5.0 (Macintosh; Intel Mac OS X 10_15_5) AppleWebKit/537.36 (KHTML, like Gecko) Code/1.48.2 Chrome/78.0.3904.130 Electron/7.3.2 Safari/537.36" version="13.6.5" etag="nctoYycX0NaY8MN7hqqn">
    <diagram id="1N-yHZzqMzcR-o5QM_Qr" name="Page-1">
        <mxGraphModel dx="295" dy="354" grid="1" gridSize="10" guides="1" tooltips="1" connect="1" arrows="1" fold="1" page="1" pageScale="1" pageWidth="3300" pageHeight="4681" math="0" shadow="0">
            <root>
                <mxCell id="0"/>
                <mxCell id="1" parent="0"/>
                <mxCell id="13" style="edgeStyle=orthogonalEdgeStyle;rounded=0;orthogonalLoop=1;jettySize=auto;html=1;exitX=0.5;exitY=1;exitDx=0;exitDy=0;entryX=0.5;entryY=0;entryDx=0;entryDy=0;endArrow=none;endFill=0;fontColor=#5C5C5C;strokeWidth=3;strokeColor=#333333;fontSize=7;" edge="1" parent="1" source="6" target="7">
                    <mxGeometry relative="1" as="geometry"/>
                </mxCell>
                <mxCell id="15" style="edgeStyle=orthogonalEdgeStyle;rounded=0;orthogonalLoop=1;jettySize=auto;html=1;exitX=0.5;exitY=1;exitDx=0;exitDy=0;entryX=0.5;entryY=0;entryDx=0;entryDy=0;endArrow=none;endFill=0;fontColor=#5C5C5C;strokeWidth=3;strokeColor=#333333;fontSize=7;" edge="1" parent="1" source="6" target="9">
                    <mxGeometry relative="1" as="geometry"/>
                </mxCell>
                <mxCell id="6" value="App" style="rounded=0;whiteSpace=wrap;html=1;fillColor=#21C0A5;strokeColor=#006658;fontColor=#FFFFFF;" vertex="1" parent="1">
                    <mxGeometry x="350" y="380" width="100" height="60" as="geometry"/>
                </mxCell>
                <mxCell id="14" style="edgeStyle=orthogonalEdgeStyle;rounded=0;orthogonalLoop=1;jettySize=auto;html=1;exitX=0.5;exitY=1;exitDx=0;exitDy=0;entryX=0.5;entryY=0;entryDx=0;entryDy=0;endArrow=none;endFill=0;fontColor=#5C5C5C;strokeWidth=3;strokeColor=#333333;fontSize=7;" edge="1" parent="1" source="7" target="8">
                    <mxGeometry relative="1" as="geometry"/>
                </mxCell>
                <mxCell id="7" value="Home" style="rounded=0;whiteSpace=wrap;html=1;fillColor=#21C0A5;strokeColor=#006658;fontColor=#FFFFFF;" vertex="1" parent="1">
                    <mxGeometry x="250" y="480" width="100" height="60" as="geometry"/>
                </mxCell>
                <mxCell id="8" value="Buttons" style="rounded=0;whiteSpace=wrap;html=1;fillColor=#21C0A5;strokeColor=#006658;fontColor=#FFFFFF;" vertex="1" parent="1">
                    <mxGeometry x="250" y="590" width="100" height="60" as="geometry"/>
                </mxCell>
                <mxCell id="9" value="FlashMessage" style="rounded=0;whiteSpace=wrap;html=1;fillColor=#21C0A5;strokeColor=#006658;fontColor=#FFFFFF;" vertex="1" parent="1">
                    <mxGeometry x="450" y="480" width="100" height="60" as="geometry"/>
                </mxCell>
                <mxCell id="17" value="Eventの購読&lt;br&gt;&lt;br&gt;emitter.on('flash', xxx)" style="shape=callout;whiteSpace=wrap;html=1;perimeter=calloutPerimeter;position2=0.08;fillColor=#f5f5f5;strokeColor=#666666;fontColor=#333333;" vertex="1" parent="1">
                    <mxGeometry x="550" y="390" width="150" height="100" as="geometry"/>
                </mxCell>
                <mxCell id="18" value="Eventの発行&lt;br&gt;&lt;br&gt;emitter.emit('flash', xxx)" style="shape=callout;whiteSpace=wrap;html=1;perimeter=calloutPerimeter;position2=1;fillColor=#f5f5f5;strokeColor=#666666;fontColor=#333333;" vertex="1" parent="1">
                    <mxGeometry x="80" y="520" width="150" height="100" as="geometry"/>
                </mxCell>
                <mxCell id="19" value="" style="shape=flexArrow;endArrow=classic;html=1;strokeColor=#006658;fontColor=#5C5C5C;fillColor=#ffffff;" edge="1" parent="1">
                    <mxGeometry width="50" height="50" relative="1" as="geometry">
                        <mxPoint x="378" y="610" as="sourcePoint"/>
                        <mxPoint x="449" y="555" as="targetPoint"/>
                    </mxGeometry>
                </mxCell>
                <mxCell id="20" value="Button 押下で、&lt;br&gt;Eventの発行を通しての&lt;br&gt;Flashメッセージ表示指示" style="text;html=1;strokeColor=none;fillColor=none;align=center;verticalAlign=middle;whiteSpace=wrap;rounded=0;fontColor=#5C5C5C;" vertex="1" parent="1">
                    <mxGeometry x="350" y="610" width="206" height="20" as="geometry"/>
                </mxCell>
            </root>
        </mxGraphModel>
    </diagram>
</mxfile>